<svg xmlns="http://www.w3.org/2000/svg" width="42" height="44" fill="none"><defs/><path fill="#6B4C9F" d="M20.49 1.227H.26v20.51h20.23V1.227z"/><path fill="#fff" d="M20.231 1.49v19.983H.52V1.49H20.23zm.52-.527H0V22h20.752V.963h-.001z"/><path fill="#F58220" d="M41.24 1.227H21.012v20.51h20.23V1.227z"/><path fill="#fff" d="M40.981 1.49v19.983h-19.71V1.49h19.71zm.52-.527h-20.75V22h20.75V.963z"/><path fill="#9CCB3B" d="M20.49 22.265H.26v20.51h20.23v-20.51z"/><path fill="#fff" d="M20.231 22.528V42.51H.52V22.528H20.23zm.52-.527H0v21.037h20.752V22h-.001z"/><path fill="#E31E36" d="M41.24 22.265H21.012v20.51h20.23v-20.51z"/><path fill="#fff" d="M40.981 22.528V42.51h-19.71V22.528h19.71zm.52-.527h-20.75v21.037h20.75V22zM6.538 27.536h6.624v1.155h-5.47v3.665h5.423v1.147H7.693V38.1h5.422v1.155H6.538v-11.72z"/><path fill="#fff" d="M24.548 39.255l1.642-11.72h.189l4.7 9.617 4.652-9.616h.188l1.658 11.72h-1.14l-1.13-8.382-4.087 8.381h-.291l-4.141-8.445-1.124 8.445h-1.116zM5.65 6.015h1.257l3.827 9.058 3.898-9.058h1.257l-5.03 11.719h-.25l-4.96-11.72zM27.414 15.55l.983-.597c.691 1.291 1.49 1.936 2.397 1.936.387 0 .751-.09 1.092-.27.34-.186.6-.433.778-.741.178-.309.267-.635.267-.98 0-.393-.131-.778-.393-1.156-.361-.52-1.021-1.147-1.98-1.88-.964-.738-1.564-1.272-1.8-1.601-.409-.552-.613-1.15-.613-1.793 0-.51.12-.974.362-1.394.24-.42.579-.749 1.013-.988.44-.244.917-.366 1.43-.366.546 0 1.054.138 1.525.414.477.27.98.773 1.51 1.506l-.944.725c-.435-.584-.807-.97-1.116-1.155a1.876 1.876 0 00-.998-.28c-.466 0-.849.144-1.147.43-.294.288-.44.64-.44 1.06 0 .255.052.502.157.741.105.24.296.5.573.781.152.149.65.54 1.494 1.171 1 .75 1.687 1.416 2.059 2 .372.584.558 1.171.558 1.76 0 .85-.32 1.589-.96 2.216-.633.626-1.406.94-2.317.94a3.39 3.39 0 01-1.91-.566c-.571-.382-1.098-1.02-1.58-1.912z"/></svg>