<svg xmlns="http://www.w3.org/2000/svg" fill="none" viewBox="0 0 32 31"><path fill="#000" d="M15.49 7.73a3.92 3.92 0 00-3.6 2.39 3.85 3.85 0 002.84 5.28 3.93 3.93 0 004-1.65 3.85 3.85 0 00-.48-4.89 3.92 3.92 0 00-2.76-1.13zm0 5.8a1.96 1.96 0 01-1.8-1.19A1.92 1.92 0 0115.1 9.7a1.97 1.97 0 012 .82 1.93 1.93 0 01-.24 2.45c-.37.36-.86.57-1.38.57z"/><path fill="#000" d="M23 4.15A10.65 10.65 0 005 9.95c-.4 2.58.16 5.21 1.6 7.4l7.37 11.23a1.8 1.8 0 002.37.6c.27-.14.49-.35.65-.6l7.38-11.24a10.47 10.47 0 00-1.39-13.2zm-.26 12.13L15.5 27.34 8.24 16.28A8.58 8.58 0 0115.49 3a8.71 8.71 0 016.12 2.52 8.58 8.58 0 011.13 10.76z"/></svg>