<svg xmlns="http://www.w3.org/2000/svg" fill="none" viewBox="0 0 28 24"><path fill="#000" d="M27.49 3.78a1.96 1.96 0 00-1.53-.73H4.68l-.2-1.36A1.97 1.97 0 002.55 0H.87a.87.87 0 100 1.75h1.67c.11 0 .2.08.22.18L5.1 18.82c.14.96.97 1.69 1.95 1.69H8a2.62 2.62 0 104.94 0h4.66a2.62 2.62 0 104.94 0h1.9a.87.87 0 000-1.75H7.06c-.11 0-.2-.08-.22-.18l-.22-1.56h17.2c.91 0 1.72-.65 1.91-1.55l2.15-10.04a1.96 1.96 0 00-.39-1.65zm-16.14 17.6a.87.87 0 11-1.75 0 .87.87 0 011.75 0zm9.6 0a.87.87 0 11-1.75 0 .87.87 0 011.75 0zm5.23-16.32L24.03 15.1a.22.22 0 01-.22.17H6.38L4.92 4.8h21.04c.09 0 .14.04.17.08s.06.1.05.18z"/></svg>