<svg xmlns="http://www.w3.org/2000/svg" width="25" height="26" fill="none"><g fill="#000" clip-path="url(#clip0)"><path d="M9.83 24.274a.85.85 0 01-.646-.298L2.054 15.6c-.64-.742-1.12-1.534-1.423-2.35-1.136-2.966-.722-6.337 1.113-9.005C3.601 1.548 6.547 0 9.83 0c3.228 0 6.146 1.507 8.006 4.133 1.844 2.602 2.322 5.922 1.282 8.88l-1.601-.563c.858-2.44.46-5.182-1.066-7.336-1.538-2.171-3.952-3.416-6.621-3.416-2.715 0-5.152 1.28-6.687 3.51C1.625 7.417 1.28 10.2 2.22 12.655c.235.633.612 1.25 1.123 1.843l6.487 7.62.966-1.136 1.293 1.1-1.613 1.896a.853.853 0 01-.646.297z"/><path d="M9.83 14.542a4.759 4.759 0 01-4.753-4.753A4.759 4.759 0 019.83 5.036a4.759 4.759 0 014.753 4.753 4.759 4.759 0 01-4.753 4.753zm0-7.808a3.059 3.059 0 00-3.056 3.055 3.059 3.059 0 003.056 3.056 3.059 3.059 0 003.055-3.056A3.059 3.059 0 009.83 6.734z"/><path d="M17.13 26a7.11 7.11 0 01-7.102-7.101 7.11 7.11 0 017.101-7.102A7.11 7.11 0 0124.23 18.9 7.11 7.11 0 0117.13 26zm0-12.505a5.41 5.41 0 00-5.405 5.404 5.41 5.41 0 005.404 5.404 5.41 5.41 0 005.404-5.404 5.41 5.41 0 00-5.404-5.404z"/><path d="M17.13 23.114a.848.848 0 01-.85-.848v-6.168a.849.849 0 111.698 0v6.168c0 .468-.38.848-.849.848z"/><path d="M19.93 19.663a.846.846 0 01-.6-.25l-2.201-2.2-2.2 2.2a.848.848 0 11-1.2-1.2l2.8-2.8a.873.873 0 011.2 0l2.801 2.8a.848.848 0 01-.6 1.45z"/></g><defs><clipPath id="clip0"><path fill="#fff" d="M0 0h24.23v26H0z"/></clipPath></defs></svg>