<svg xmlns="http://www.w3.org/2000/svg" fill="none" viewBox="0 0 158 44"><path fill="#6B4C9F" d="M20.5 1.23H.25v20.5h20.23V1.24z"/><path fill="#fff" d="M20.23 1.49v19.98H.52V1.5h19.71zm.52-.53H0V22h20.75V.96z"/><path fill="#F58220" d="M41.24 1.23H21.01v20.5h20.23V1.24z"/><path fill="#fff" d="M40.98 1.49v19.98h-19.7V1.5h19.7zm.52-.53H20.75V22H41.5V.96z"/><path fill="#9CCB3B" d="M20.5 22.26H.25v20.51h20.23v-20.5z"/><path fill="#fff" d="M20.23 22.53V42.5H.52V22.53h19.71zm.52-.53H0v21.04h20.75V22z"/><path fill="#E31E36" d="M41.24 22.26H21.01v20.51h20.23v-20.5z"/><path fill="#fff" d="M40.98 22.53V42.5h-19.7V22.53h19.7zm.52-.53H20.75v21.04H41.5V22zM6.54 27.54h6.62v1.15H7.7v3.67h5.43v1.14H7.69v4.6h5.43v1.16H6.54V27.54z"/><path fill="#fff" d="M24.55 39.26l1.64-11.72h.19l4.7 9.61 4.65-9.61h.19l1.66 11.72h-1.14l-1.13-8.39-4.09 8.39h-.3L26.8 30.8l-1.13 8.45h-1.11zM5.65 6.01H6.9l3.82 9.06 3.9-9.06h1.26l-5.03 11.72h-.25L5.65 6.01zM27.41 15.55l.99-.6c.69 1.3 1.49 1.94 2.4 1.94.38 0 .75-.1 1.09-.27a1.96 1.96 0 001.04-1.72 2 2 0 00-.4-1.16 9.47 9.47 0 00-1.97-1.88 10.17 10.17 0 01-1.8-1.6 2.95 2.95 0 01-.25-3.19c.24-.42.58-.74 1.01-.98a2.96 2.96 0 012.95.05c.48.26.98.77 1.51 1.5l-.94.72c-.43-.58-.8-.96-1.11-1.15-.3-.19-.64-.28-1-.28-.47 0-.85.14-1.15.43-.3.29-.44.64-.44 1.06 0 .26.05.5.16.74.1.24.3.5.57.78.15.15.65.54 1.5 1.17 1 .75 1.68 1.42 2.05 2 .37.59.56 1.17.56 1.76a3 3 0 01-.96 2.22c-.63.63-1.4.94-2.32.94-.7 0-1.34-.19-1.9-.57a5.23 5.23 0 01-1.59-1.9z"/><path fill="#9CCB3B" d="M49.96 1.56h23.07v4H54v14.89h18.88v4H53.99v13.93h18.88v4h-22.9V1.55zM83 42.37V1.57h8.35c6.02 0 10.4.48 13.11 1.46 3.9 1.4 6.96 3.8 9.16 7.22s3.3 7.5 3.3 12.23c0 4.09-.88 7.69-2.62 10.8-1.74 3.1-4 5.4-6.78 6.87-2.79 1.48-6.69 2.22-11.7 2.22H83zm3.87-3.85h4.65c5.56 0 9.42-.35 11.57-1.06 3.03-1 5.41-2.79 7.15-5.39 1.73-2.6 2.6-5.77 2.6-9.52 0-3.94-.94-7.3-2.82-10.09s-4.5-4.7-7.86-5.74c-2.51-.77-6.66-1.16-12.45-1.16h-2.84v32.96zM139 1.56l18.78 40.81h-4.34l-6.33-13.42h-17.35l-6.27 13.42H119l19.02-40.8h.99zm-.5 8.67l-6.9 14.78h13.77l-6.87-14.78z"/></svg>