<svg xmlns="http://www.w3.org/2000/svg" fill="none" viewBox="0 0 26 26"><path fill="#1A1413" d="M4.4 23.93h16.82v1.91H4.4v-1.91zM15.84 10.45h-5.9a.96.96 0 010-1.91h5.9a.96.96 0 110 1.91zM20.3 14.91H9.94a.96.96 0 010-1.91H20.3a.96.96 0 110 1.91z"/><path fill="#1A1413" d="M6.12 18h11.72c.53 0 .96.43.96.96v2.32a2.65 2.65 0 005.29 0V3.11l-1.73 1.53a.96.96 0 01-1.27 0l-2.67-2.4-2.68 2.4a.96.96 0 01-1.27 0l-2.68-2.4-2.68 2.4a.96.96 0 01-1.27 0L6.12 3.1v14.9zm15.32 7.84a4.56 4.56 0 01-4.55-4.56v-1.37H1.9v1.37a2.65 2.65 0 002.65 2.65v1.91A4.56 4.56 0 010 21.28v-2.32c0-.53.43-.96.96-.96H4.2V1A.96.96 0 015.8.27l2.67 2.37 2.68-2.4a.95.95 0 011.28 0l2.67 2.4 2.68-2.4a.96.96 0 011.27 0l2.68 2.4L24.41.27A.96.96 0 0126 1v20.3a4.56 4.56 0 01-4.56 4.55z"/></svg>