<svg xmlns="http://www.w3.org/2000/svg" fill="none" viewBox="0 0 23 25"><g fill="#000" clip-path="url(#clip0)"><path d="M22.1 24.68H.9a.9.9 0 01-.9-.9c0-6.37 4.08-9.88 11.5-9.88S23 17.41 23 23.78c0 .5-.4.9-.9.9zm-20.27-1.8h19.34c-.36-4.76-3.6-7.18-9.67-7.18-6.06 0-9.31 2.42-9.67 7.18zM11.5 12.58c-3.3 0-5.98-2.9-5.98-6.48A5.9 5.9 0 0111.5 0a5.9 5.9 0 015.98 6.1c0 3.57-2.69 6.48-5.98 6.48zm0-10.78c-2.42 0-4.17 1.8-4.17 4.3 0 2.58 1.87 4.68 4.17 4.68s4.17-2.1 4.17-4.68c0-2.45-1.79-4.3-4.17-4.3z"/></g><defs><clipPath id="clip0"><path fill="#fff" d="M0 0h23v24.68H0z"/></clipPath></defs></svg>