<?xml version="1.0" standalone="no"?>
<!DOCTYPE svg PUBLIC "-//W3C//DTD SVG 20010904//EN"
 "http://www.w3.org/TR/2001/REC-SVG-20010904/DTD/svg10.dtd">
<svg version="1.0" xmlns="http://www.w3.org/2000/svg"
 width="704.000000pt" height="704.000000pt" viewBox="0 0 704.000000 704.000000"
 preserveAspectRatio="xMidYMid meet">
<metadata>
Created by potrace 1.11, written by Peter Selinger 2001-2013
</metadata>
<g transform="translate(0.000000,704.000000) scale(0.100000,-0.100000)"
fill="#000000" stroke="none">
<path d="M240 5205 l0 -1605 1580 0 1580 0 0 1605 0 1605 -1580 0 -1580 0 0
-1605z m1327 145 c166 -393 306 -716 310 -717 4 -2 22 30 39 70 17 39 156 363
309 720 l278 647 95 0 c54 0 92 -4 90 -9 -1 -5 -181 -424 -398 -931 -335 -781
-398 -920 -414 -918 -14 2 -103 204 -407 922 -214 506 -389 923 -389 928 0 5
41 7 92 6 l92 -3 303 -715z"/>
<path d="M3567 6803 c-4 -3 -7 -726 -7 -1605 l0 -1598 1580 0 1580 0 -2 1603
-3 1602 -1571 3 c-864 1 -1574 -1 -1577 -5z m1645 -694 c72 -15 161 -61 224
-115 49 -41 161 -172 153 -178 -2 -1 -35 -26 -72 -56 l-69 -53 -26 34 c-63 81
-118 131 -178 160 -58 29 -69 31 -147 28 -72 -4 -90 -8 -133 -34 -30 -19 -60
-49 -79 -79 -26 -44 -30 -58 -30 -125 0 -137 48 -201 287 -382 198 -149 360
-307 411 -399 54 -99 70 -166 65 -280 -3 -89 -7 -104 -42 -175 -152 -308 -549
-390 -819 -170 -55 45 -110 112 -171 207 l-36 57 75 47 c42 25 77 45 79 43 2
-2 10 -18 19 -34 31 -61 127 -172 180 -209 66 -46 154 -70 220 -62 239 32 373
251 278 453 -41 86 -159 206 -361 368 -193 154 -244 202 -294 276 -74 110 -96
262 -57 390 67 213 291 337 523 288z"/>
<path d="M240 1840 l0 -1600 1580 0 1580 0 0 1600 0 1600 -1580 0 -1580 0 0
-1600z m2020 700 l0 -90 -435 0 -435 0 0 -295 0 -295 435 0 436 0 -3 -87 -3
-88 -432 -3 -433 -2 0 -370 0 -370 435 0 436 0 -3 -88 -3 -87 -522 -3 -523 -2
0 935 0 935 525 0 525 0 0 -90z"/>
<path d="M3560 1835 l0 -1605 1580 0 1580 0 0 1605 0 1605 -1580 0 -1580 0 0
-1605z m935 553 c65 -134 195 -398 287 -588 93 -190 208 -425 255 -523 48 -98
91 -176 97 -174 5 2 175 345 377 762 202 418 372 761 378 763 14 5 10 31 111
-688 50 -355 106 -755 125 -889 19 -134 35 -252 35 -262 0 -17 -9 -19 -83 -19
l-83 0 -39 288 c-21 158 -42 312 -46 342 -66 501 -92 686 -98 693 -7 7 -150
-280 -504 -1011 -141 -289 -154 -312 -176 -310 -21 3 -63 82 -349 668 -179
366 -327 667 -329 669 -9 13 -17 -33 -53 -305 -42 -319 -56 -421 -70 -524 -5
-36 -14 -101 -19 -145 -23 -167 -41 -301 -46 -332 l-6 -33 -79 0 c-69 0 -80 2
-80 17 0 18 44 342 100 733 25 176 129 917 146 1050 7 49 11 60 23 60 4 0 61
-109 126 -242z"/>
</g>
</svg>
